<svg viewBox="0 0 192 163" fill="currentColor" xmlns="http://www.w3.org/2000/svg">
<path d="M50 96.6185L59.0164 112.335C70.4574 132.133 95.6504 138.886 115.35 127.403C135.05 115.959 141.831 90.5913 130.542 70.7166L121.525 55L50 96.5804V96.6185Z" fill="currentColor"/>
<path d="M22.5046 112.919C12.7651 118.553 9.44394 130.98 15.0414 140.719C20.6761 150.458 33.1023 153.78 42.8418 148.182C52.5813 142.585 55.9025 130.121 50.305 120.382L40.1178 102.769L22.5046 112.956V112.919Z" fill="#E0E0E0"/>
<path d="M149.343 39.7044C159.082 34.0697 171.508 37.4281 177.143 47.1676C182.778 56.9071 179.419 69.3334 169.68 74.9681C159.94 80.6028 147.514 77.2444 141.879 67.5049L131.692 49.8917L149.305 39.7044H149.343Z" fill="#E0E0E0"/>
<path d="M59.4482 30.4124C40.0066 41.6445 33.327 66.5344 44.5591 85.976L115.012 45.3015C103.78 25.8598 78.8899 19.1802 59.4482 30.4124Z" fill="white"/>
<path d="M60.1086 69.4883C63.6068 67.4686 64.6216 62.6771 62.3752 58.7863C60.1288 54.8954 55.4719 53.3785 51.9737 55.3982C48.4755 57.4179 47.4607 62.2093 49.7071 66.1002C51.9535 69.9911 56.6104 71.508 60.1086 69.4883Z" fill="#262626"/>
<path d="M56.577 59.7054C57.4838 59.7054 58.2189 58.9703 58.2189 58.0635C58.2189 57.1567 57.4838 56.4216 56.577 56.4216C55.6702 56.4216 54.9351 57.1567 54.9351 58.0635C54.9351 58.9703 55.6702 59.7054 56.577 59.7054Z" fill="white"/>
<path d="M92.9785 50.4321C96.4767 48.4124 97.4915 43.621 95.2451 39.7301C92.9987 35.8392 88.3418 34.3224 84.8436 36.342C81.3454 38.3617 80.3306 43.1532 82.577 47.0441C84.8234 50.9349 89.4803 52.4518 92.9785 50.4321Z" fill="#262626"/>
<path d="M84.899 43.3612C85.8058 43.3612 86.5409 42.6261 86.5409 41.7193C86.5409 40.8125 85.8058 40.0774 84.899 40.0774C83.9922 40.0774 83.2571 40.8125 83.2571 41.7193C83.2571 42.6261 83.9922 43.3612 84.899 43.3612Z" fill="white"/>
<path d="M143.185 29.0319L125.572 39.2192C116.056 22.7628 99.0403 13.3965 81.3524 12.8367V5.70936C81.3524 2.57481 78.8149 0 75.6431 0C72.5085 0 69.9337 2.53749 69.9337 5.70936V13.7323C64.2244 14.8145 58.5896 16.7922 53.2907 19.8522C47.9919 22.9121 43.4766 26.7556 39.7077 31.1216L32.7669 27.1288C30.0428 25.5615 26.5724 26.4944 24.9678 29.2185C23.4006 31.9426 24.3335 35.413 27.0575 37.0175L33.2147 40.5626C24.8186 56.1607 24.3708 75.6397 33.8864 92.0961L16.2732 102.283C0.712392 111.277 -4.62381 131.166 4.36937 146.727C13.3625 162.288 33.252 167.624 48.8128 158.631C57.806 153.444 63.3661 144.6 64.7468 135.047C78.3671 144.376 95.9057 146.988 111.914 141.391L122.923 146.391C125.684 147.66 128.819 145.831 129.117 142.809L130.311 130.345C142.364 119.262 148.447 103.328 147.215 87.3569C156.171 90.9393 166.62 90.5661 175.613 85.3792C191.174 76.386 196.51 56.4965 187.517 40.9357C178.524 25.3749 158.634 20.0387 143.073 29.0319H143.185ZM48.8501 117.881L50.2308 120.27C55.8656 130.009 52.5071 142.435 42.7676 148.07C33.0281 153.705 20.6019 150.346 14.9671 140.607C9.33241 130.867 12.6909 118.441 22.4303 112.806L40.0435 102.619L48.8501 117.844V117.881ZM59.4106 30.4126C78.8523 19.1805 103.742 25.86 114.974 45.3017L44.5215 85.9762C33.2893 66.5346 39.9689 41.6447 59.4106 30.4126ZM114.974 126.688C100.122 135.271 82.1361 133.368 69.4486 123.404L134.864 85.6404C137.177 101.612 129.789 118.143 114.974 126.688ZM131.169 73.6619L60.9405 114.187C60.4181 113.404 59.8584 112.62 59.3733 111.762L50.5667 96.5367L121.019 55.8622L129.826 71.0871C130.311 71.9081 130.722 72.8037 131.132 73.6619H131.169ZM169.605 74.8187C159.865 80.4535 147.439 77.095 141.804 67.3555L140.424 64.9673L131.617 49.7423L149.23 39.555C158.97 33.9203 171.396 37.2788 177.031 47.0183C182.666 56.7578 179.307 69.184 169.568 74.8187H169.605Z" fill="#262626"/>
</svg>
